<svg preserveAspectRatio="none" overflow="visible" style="display: block;" width="134.059" height="135.237" viewBox="0 0 134.059 135.237" fill="none" xmlns="http://www.w3.org/2000/svg">
<g id="Group">
<path id="Vector" fill-rule="evenodd" clip-rule="evenodd" d="M84.4376 15.8357C84.4376 24.5671 91.542 31.6715 100.273 31.6715C109.005 31.6715 116.109 24.5671 116.109 15.8357C116.109 7.10438 109.005 0 100.273 0C91.542 0 84.4376 7.10438 84.4376 15.8357ZM15.7294 124.758H57.5585V116.05C57.5585 115.158 56.8321 114.429 55.9374 114.429H17.3505C16.4558 114.429 15.7294 115.155 15.7294 116.05V124.758ZM57.5585 135.237V128.301H15.7294V135.237H57.5585ZM118.33 128.301H76.5035V135.237H118.33V128.301ZM116.714 114.429H78.1245C77.2299 114.429 76.5035 115.155 76.5035 116.05V124.758H118.33V116.05C118.33 115.155 117.606 114.429 116.714 114.429ZM84.7535 85.8579L113.009 61.4L113.088 61.3292C115.191 59.277 118.318 59.4217 120.512 61.6717C121.451 62.6372 121.97 63.9187 121.947 65.277C121.935 66.6353 121.392 67.905 120.429 68.8469L104.366 84.5262C104.199 84.6885 104.066 84.8821 103.975 85.0959C103.883 85.3097 103.834 85.5394 103.832 85.772C103.829 86.0046 103.872 86.2354 103.959 86.4513C104.045 86.6672 104.174 86.8639 104.336 87.0301C105.018 87.7329 106.14 87.7447 106.84 87.0626L122.9 71.3834C124.551 69.777 125.466 67.6245 125.49 65.3213C125.525 63.2691 124.84 61.3233 123.55 59.7612V33.6735C123.55 30.7325 125.838 28.5976 128.986 28.5976C131.794 28.5976 134.059 30.8742 134.059 33.6735V72.6353C134.059 75.9365 133.023 78.7594 130.852 81.2604L115.374 99.2103C115.096 99.532 114.943 99.9428 114.943 100.368V110.886H79.8962V96.4879C79.8962 92.224 81.5291 88.6482 84.7535 85.8579ZM49.3084 85.8579L21.0533 61.4L20.9736 61.3292C18.8712 59.277 15.7472 59.4217 13.5473 61.6717C12.6054 62.6372 12.0946 63.9187 12.1123 65.277C12.127 66.6353 12.6674 67.905 13.6359 68.8469L29.699 84.5262C29.8656 84.6885 29.9985 84.8821 30.0902 85.0959C30.1818 85.3097 30.2304 85.5394 30.2332 85.772C30.2359 86.0046 30.1928 86.2354 30.1062 86.4513C30.0196 86.6672 29.8913 86.8639 29.7285 87.0301C29.0465 87.7329 27.9244 87.7447 27.2246 87.0626L11.1615 71.3834C9.5168 69.777 8.59553 67.6245 8.56896 65.3213C8.54238 63.2691 9.22742 61.3233 10.5089 59.7612V33.6735C10.5089 30.7325 8.22348 28.5976 5.07582 28.5976C2.27659 28.5976 0 30.8742 0 33.6735V72.6353C0 75.9365 1.04824 78.7594 3.20671 81.2604L18.6911 99.2103C18.9689 99.532 19.1219 99.9428 19.1222 100.368V110.886H54.1657V96.4879C54.1657 92.224 52.5328 88.6482 49.3084 85.8579ZM100.273 35.2148C100.929 35.2148 101.578 35.1823 102.219 35.1174C101.434 36.8273 100.351 38.3841 99.0213 39.7148L67.031 71.7052L35.0406 39.7148C32.0347 36.706 30.3752 32.6902 30.3752 28.4028C30.3752 24.1153 32.0347 20.0966 35.0406 17.0907C41.2798 10.8515 51.4314 10.8515 57.6677 17.0907L65.779 25.199C66.1097 25.5297 66.5615 25.7157 67.031 25.7157C67.5004 25.7157 67.9522 25.5297 68.2829 25.199L76.3942 17.0907C77.7249 15.7597 79.2816 14.6759 80.9917 13.8899C80.9267 14.5306 80.8942 15.1802 80.8942 15.8357C80.8942 26.5218 89.5872 35.2148 100.273 35.2148ZM91.6364 17.6074C90.6561 17.6074 89.8648 16.8131 89.8648 15.8357C89.8648 14.8584 90.6561 14.0641 91.6364 14.0641H98.5017V7.19887C98.5017 6.2215 99.2959 5.4272 100.273 5.4272C101.251 5.4272 102.045 6.2215 102.045 7.19887V14.0641H108.91C109.891 14.0641 110.682 14.8584 110.682 15.8357C110.682 16.8131 109.891 17.6074 108.91 17.6074H102.045V24.4726C102.045 25.45 101.251 26.2443 100.273 26.2443C99.2959 26.2443 98.5017 25.45 98.5017 24.4726V17.6074H91.6364Z" fill="white"/>
</g>
</svg>
